<?xml version="1.0" encoding="utf-8"?>
<!-- Generator: Adobe Illustrator 23.0.2, SVG Export Plug-In . SVG Version: 6.00 Build 0)  -->
<svg version="1.1" id="Calque_1" xmlns="http://www.w3.org/2000/svg" xmlns:xlink="http://www.w3.org/1999/xlink" x="0px" y="0px"
	 viewBox="0 0 1920 1920" style="enable-background:new 0 0 1920 1920;" xml:space="preserve">
<style type="text/css">
	.st0{fill:#FFFFFF;}
	.st1{opacity:0.3;fill:#FFFFFF;enable-background:new    ;}
	.st2{opacity:0.5;fill:#FFFFFF;enable-background:new    ;}
</style>
<g>
	<path class="st0" d="M1333,706.5c1.3-0.2,5.2-0.6,11-0.6C1338.3,705.9,1334.3,706.3,1333,706.5z"/>
	<path class="st0" d="M1332.6,706.5c0.1,0,0.2,0,0.4,0C1332.8,706.5,1332.7,706.5,1332.6,706.5z"/>
	<path class="st0" d="M960,125c-461.1,0-835,373.8-835,835s373.8,835,835,835s835-373.8,835-835S1421.1,125,960,125z M960.1,1421.2
		c-281,0-515-227.9-508.8-508.8c4.6-207.6,157-215.2,157-215.2c42.5-1.4,79.5,4.6,112.7,15.1l0-0.1c0,0,13.9-18.5,113.8-15.2
		c80,2.7,187.6,75,227.3,103.6c21.2-13.8,45.5-28.2,72-41.5c21.2-10.6,43.8-20.4,67.4-28.7c17.7-6.2,36-11.5,54.7-15.5
		c10.9-2.3,21.9-4.3,33.1-5.7c1.6-0.2,3.2-0.4,4.8-0.6c12.7-1.5,25.6-2.2,38.5-2.2c0,0,0,0,0.1,0c0.1,0,0.2,0,0.4,0
		c1.3-0.2,5.2-0.6,11-0.6c0.7,0,1.5,0,2.3,0c5.6,0.1,12.5,0.7,20.1,2.2c1.8,0.3,3.5,0.7,5.3,1.2c3.6,0.9,7.4,2,11.2,3.4
		c1.9,0.7,3.8,1.5,5.8,2.3c7.7,3.4,15.6,7.9,23,14.1c3.7,3.1,7.4,6.5,10.9,10.4c19.2,21.5,33.9,56.5,34,113.1l0,0
		c12.3,28.6,12.2,59.7,12.2,59.7C1468.8,1193.4,1241.1,1421.2,960.1,1421.2z"/>
	<path class="st1" d="M1062.1,800.6c-39.7-28.7-147.3-101-227.3-103.6c-99.9-3.3-113.8,15.2-113.8,15.2l0,0.1
		c107.8,34.1,174.4,116.7,252.3,156.1C973.3,868.3,1007.6,836.2,1062.1,800.6z"/>
	<path class="st2" d="M993.8,877.5c111.9,43.5,345-59.1,345-59.1c17.8-7.6,33.1-11.4,46.3-12.3c1.7-0.1,3.3-0.2,4.9-0.2
		c36.6-0.5,56.2,22.2,66.7,46.7l0,0c-0.1-56.6-14.8-91.6-34-113.1c-3.5-3.9-7.2-7.4-10.9-10.4c-7.5-6.1-15.3-10.7-23-14.1
		c-1.9-0.8-3.8-1.6-5.8-2.3c-3.8-1.4-7.6-2.5-11.2-3.4c-1.8-0.5-3.6-0.8-5.3-1.2c-7.6-1.5-14.6-2.1-20.1-2.2c-0.8,0-1.6,0-2.3,0
		c-5.8,0-9.7,0.4-11,0.6c-0.2,0-0.3,0-0.4,0c0,0-0.1,0-0.1,0c-12.9,0-25.8,0.8-38.5,2.2c-1.6,0.2-3.2,0.4-4.8,0.6
		c-11.1,1.4-22.2,3.3-33.1,5.7c-18.7,4-37,9.3-54.7,15.5c-23.6,8.3-46.3,18.1-67.4,28.7c-26.5,13.2-50.8,27.6-72,41.5
		c-54.5,35.6-88.8,67.7-88.8,67.7C980,871.7,986.8,874.8,993.8,877.5z"/>
	<path class="st0" d="M1256.2,715c10.9-2.3,21.9-4.3,33.1-5.7C1278.1,710.7,1267.1,712.6,1256.2,715z"/>
	<path class="st2" d="M1256.2,715c10.9-2.3,21.9-4.3,33.1-5.7C1278.1,710.7,1267.1,712.6,1256.2,715z"/>
	<path class="st0" d="M1411.8,729.1c3.7,3.1,7.4,6.5,10.9,10.4"/>
	<path class="st0" d="M1411.8,729.1c3.7,3.1,7.4,6.5,10.9,10.4"/>
	<path class="st0" d="M1371.8,709.3c3.6,0.9,7.4,2,11.2,3.4"/>
	<path class="st0" d="M1371.8,709.3c3.6,0.9,7.4,2,11.2,3.4"/>
	<path class="st0" d="M1388.7,715c7.7,3.4,15.6,7.9,23,14.1"/>
	<path class="st0" d="M1388.7,715c7.7,3.4,15.6,7.9,23,14.1"/>
	<path class="st0" d="M1346.3,705.9c5.6,0.1,12.5,0.7,20.1,2.2C1358.8,706.6,1351.9,706,1346.3,705.9z"/>
	<path class="st2" d="M1346.3,705.9c5.6,0.1,12.5,0.7,20.1,2.2C1358.8,706.6,1351.9,706,1346.3,705.9z"/>
	<path class="st0" d="M1344,705.9c0.7,0,1.5,0,2.3,0"/>
	<path class="st0" d="M1344,705.9c0.7,0,1.5,0,2.3,0"/>
</g>
</svg>
