<svg xmlns="http://www.w3.org/2000/svg" width="119.29" height="35" viewBox="0 0 119.29 35"><rect class="svg__rect" x="0" y="0" width="119.29" height="35" fill="#FFFFFF"/><rect class="svg__rect" x="119.29" y="0" width="0" height="35" fill="#FFFFFF"/><path class="svg__text" d="M19.80 22L14.22 22L14.22 13.47L19.75 13.47L19.75 14.66L15.70 14.66L15.70 17.02L19.20 17.02L19.20 18.19L15.70 18.19L15.70 20.82L19.80 20.82L19.80 22ZM25.09 22L23.36 22L26.01 17.70L23.42 13.47L25.13 13.47L26.93 16.55L28.72 13.47L30.43 13.47L27.85 17.70L30.49 22L28.76 22L26.93 18.87L25.09 22ZM36.06 22L34.57 22L34.57 13.47L37.84 13.47Q39.27 13.47 40.11 14.21Q40.95 14.96 40.95 16.18L40.95 16.18Q40.95 17.44 40.12 18.13Q39.30 18.83 37.82 18.83L37.82 18.83L36.06 18.83L36.06 22ZM36.06 14.66L36.06 17.64L37.84 17.64Q38.63 17.64 39.04 17.27Q39.46 16.90 39.46 16.19L39.46 16.19Q39.46 15.50 39.04 15.09Q38.62 14.68 37.88 14.66L37.88 14.66L36.06 14.66ZM46.71 22L45.23 22L45.23 13.47L48.23 13.47Q49.71 13.47 50.51 14.13Q51.31 14.79 51.31 16.05L51.31 16.05Q51.31 16.90 50.90 17.48Q50.49 18.06 49.75 18.37L49.75 18.37L51.66 21.92L51.66 22L50.08 22L48.37 18.71L46.71 18.71L46.71 22ZM46.71 14.66L46.71 17.52L48.24 17.52Q48.99 17.52 49.41 17.15Q49.83 16.77 49.83 16.11L49.83 16.11Q49.83 15.43 49.44 15.05Q49.05 14.68 48.28 14.66L48.28 14.66L46.71 14.66ZM61.29 22L55.71 22L55.71 13.47L61.24 13.47L61.24 14.66L57.19 14.66L57.19 17.02L60.69 17.02L60.69 18.19L57.19 18.19L57.19 20.82L61.29 20.82L61.29 22ZM65.05 19.42L65.05 19.42L66.53 19.42Q66.53 20.15 67.01 20.55Q67.49 20.95 68.39 20.95L68.39 20.95Q69.16 20.95 69.55 20.63Q69.94 20.32 69.94 19.80L69.94 19.80Q69.94 19.24 69.54 18.94Q69.15 18.63 68.12 18.32Q67.09 18.01 66.48 17.63L66.48 17.63Q65.31 16.90 65.31 15.72L65.31 15.72Q65.31 14.69 66.15 14.02Q66.99 13.35 68.33 13.35L68.33 13.35Q69.22 13.35 69.92 13.68Q70.62 14.01 71.02 14.61Q71.42 15.22 71.42 15.96L71.42 15.96L69.94 15.96Q69.94 15.29 69.52 14.91Q69.10 14.54 68.32 14.54L68.32 14.54Q67.60 14.54 67.19 14.85Q66.79 15.16 66.79 15.71L66.79 15.71Q66.79 16.18 67.23 16.50Q67.66 16.81 68.66 17.10Q69.65 17.40 70.26 17.78Q70.86 18.16 71.14 18.65Q71.42 19.13 71.42 19.79L71.42 19.79Q71.42 20.86 70.60 21.49Q69.79 22.12 68.39 22.12L68.39 22.12Q67.46 22.12 66.68 21.77Q65.91 21.43 65.48 20.83Q65.05 20.22 65.05 19.42ZM75.28 19.42L75.28 19.42L76.76 19.42Q76.76 20.15 77.24 20.55Q77.72 20.95 78.62 20.95L78.62 20.95Q79.39 20.95 79.78 20.63Q80.17 20.32 80.17 19.80L80.17 19.80Q80.17 19.24 79.77 18.94Q79.38 18.63 78.35 18.32Q77.32 18.01 76.71 17.63L76.71 17.63Q75.54 16.90 75.54 15.72L75.54 15.72Q75.54 14.69 76.38 14.02Q77.22 13.35 78.56 13.35L78.56 13.35Q79.46 13.35 80.15 13.68Q80.85 14.01 81.25 14.61Q81.65 15.22 81.65 15.96L81.65 15.96L80.17 15.96Q80.17 15.29 79.75 14.91Q79.33 14.54 78.55 14.54L78.55 14.54Q77.83 14.54 77.43 14.85Q77.02 15.16 77.02 15.71L77.02 15.71Q77.02 16.18 77.46 16.50Q77.89 16.81 78.89 17.10Q79.88 17.40 80.49 17.78Q81.09 18.16 81.37 18.65Q81.65 19.13 81.65 19.79L81.65 19.79Q81.65 20.86 80.84 21.49Q80.02 22.12 78.62 22.12L78.62 22.12Q77.69 22.12 76.92 21.77Q76.14 21.43 75.71 20.83Q75.28 20.22 75.28 19.42ZM91.31 19.57L91.31 19.57L92.79 19.57Q92.79 20.25 93.13 20.59Q93.47 20.93 94.10 20.93L94.10 20.93Q94.70 20.93 95.06 20.54Q95.41 20.14 95.41 19.45L95.41 19.45L95.41 13.47L96.89 13.47L96.89 19.45Q96.89 20.68 96.12 21.40Q95.36 22.12 94.10 22.12L94.10 22.12Q92.77 22.12 92.04 21.44Q91.31 20.77 91.31 19.57ZM101.14 19.42L101.14 19.42L102.62 19.42Q102.62 20.15 103.10 20.55Q103.58 20.95 104.47 20.95L104.47 20.95Q105.25 20.95 105.64 20.63Q106.03 20.32 106.03 19.80L106.03 19.80Q106.03 19.24 105.63 18.94Q105.24 18.63 104.21 18.32Q103.17 18.01 102.56 17.63L102.56 17.63Q101.40 16.90 101.40 15.72L101.40 15.72Q101.40 14.69 102.24 14.02Q103.08 13.35 104.42 13.35L104.42 13.35Q105.31 13.35 106.01 13.68Q106.71 14.01 107.11 14.61Q107.50 15.22 107.50 15.96L107.50 15.96L106.03 15.96Q106.03 15.29 105.61 14.91Q105.19 14.54 104.41 14.54L104.41 14.54Q103.68 14.54 103.28 14.85Q102.88 15.16 102.88 15.71L102.88 15.71Q102.88 16.18 103.31 16.50Q103.75 16.81 104.74 17.10Q105.74 17.40 106.34 17.78Q106.95 18.16 107.23 18.65Q107.51 19.13 107.51 19.79L107.51 19.79Q107.51 20.86 106.69 21.49Q105.88 22.12 104.47 22.12L104.47 22.12Q103.55 22.12 102.77 21.77Q102.00 21.43 101.57 20.83Q101.14 20.22 101.14 19.42Z" fill="#000000"/><path class="svg__text" d="" fill="#000000" x="132.29000000000002"/></svg>