<svg xmlns="http://www.w3.org/2000/svg" width="111.78" height="35" viewBox="0 0 111.78 35"><rect class="svg__rect" x="0" y="0" width="111.78" height="35" fill="#FFFFFF"/><rect class="svg__rect" x="111.78" y="0" width="0" height="35" fill="#389AD5"/><path class="svg__text" d="M15.69 22L14.22 22L14.22 13.47L16.14 13.47L18.60 20.01L21.06 13.47L22.97 13.47L22.97 22L21.49 22L21.49 19.19L21.64 15.43L19.12 22L18.06 22L15.55 15.43L15.69 19.19L15.69 22ZM27.44 18.00L27.44 18.00L27.44 17.52Q27.44 16.28 27.88 15.32Q28.33 14.37 29.13 13.86Q29.94 13.35 30.98 13.35Q32.02 13.35 32.83 13.85Q33.64 14.35 34.07 15.29Q34.51 16.23 34.52 17.48L34.52 17.48L34.52 17.96Q34.52 19.21 34.09 20.16Q33.65 21.10 32.85 21.61Q32.04 22.12 30.99 22.12L30.99 22.12Q29.96 22.12 29.14 21.61Q28.33 21.10 27.89 20.17Q27.45 19.23 27.44 18.00ZM28.92 17.46L28.92 17.96Q28.92 19.36 29.47 20.13Q30.02 20.90 30.99 20.90L30.99 20.90Q31.98 20.90 32.51 20.15Q33.04 19.40 33.04 17.96L33.04 17.96L33.04 17.51Q33.04 16.09 32.50 15.34Q31.97 14.58 30.98 14.58L30.98 14.58Q30.02 14.58 29.48 15.33Q28.94 16.09 28.92 17.46L28.92 17.46ZM40.47 22L38.98 22L38.98 13.47L40.47 13.47L44.28 19.54L44.28 13.47L45.75 13.47L45.75 22L44.27 22L40.47 15.95L40.47 22ZM50.25 18.13L50.25 18.13L50.25 17.46Q50.25 15.53 51.17 14.44Q52.10 13.35 53.76 13.35L53.76 13.35Q55.18 13.35 56.02 14.05Q56.86 14.76 57.03 16.08L57.03 16.08L55.57 16.08Q55.33 14.54 53.79 14.54L53.79 14.54Q52.79 14.54 52.27 15.26Q51.75 15.98 51.73 17.37L51.73 17.37L51.73 18.02Q51.73 19.40 52.32 20.17Q52.90 20.93 53.94 20.93L53.94 20.93Q55.07 20.93 55.56 20.42L55.56 20.42L55.56 18.75L53.80 18.75L53.80 17.62L57.03 17.62L57.03 20.89Q56.57 21.50 55.75 21.81Q54.93 22.12 53.89 22.12L53.89 22.12Q52.81 22.12 51.99 21.63Q51.16 21.14 50.71 20.24Q50.26 19.33 50.25 18.13ZM61.38 18.00L61.38 18.00L61.38 17.52Q61.38 16.28 61.82 15.32Q62.26 14.37 63.07 13.86Q63.88 13.35 64.92 13.35Q65.96 13.35 66.77 13.85Q67.57 14.35 68.01 15.29Q68.45 16.23 68.46 17.48L68.46 17.48L68.46 17.96Q68.46 19.21 68.02 20.16Q67.59 21.10 66.78 21.61Q65.98 22.12 64.93 22.12L64.93 22.12Q63.89 22.12 63.08 21.61Q62.27 21.10 61.83 20.17Q61.39 19.23 61.38 18.00ZM62.86 17.46L62.86 17.96Q62.86 19.36 63.41 20.13Q63.96 20.90 64.93 20.90L64.93 20.90Q65.91 20.90 66.44 20.15Q66.97 19.40 66.97 17.96L66.97 17.96L66.97 17.51Q66.97 16.09 66.44 15.34Q65.90 14.58 64.92 14.58L64.92 14.58Q63.96 14.58 63.42 15.33Q62.87 16.09 62.86 17.46L62.86 17.46ZM72.65 18.00L72.65 18.00L72.65 17.52Q72.65 16.28 73.10 15.32Q73.54 14.37 74.34 13.86Q75.15 13.35 76.19 13.35Q77.23 13.35 78.04 13.85Q78.85 14.35 79.29 15.29Q79.72 16.23 79.73 17.48L79.73 17.48L79.73 17.96Q79.73 19.21 79.30 20.16Q78.86 21.10 78.06 21.61Q77.25 22.12 76.20 22.12L76.20 22.12Q75.17 22.12 74.35 21.61Q73.54 21.10 73.10 20.17Q72.66 19.23 72.65 18.00ZM74.14 17.46L74.14 17.96Q74.14 19.36 74.68 20.13Q75.23 20.90 76.20 20.90L76.20 20.90Q77.19 20.90 77.72 20.15Q78.25 19.40 78.25 17.96L78.25 17.96L78.25 17.51Q78.25 16.09 77.71 15.34Q77.18 14.58 76.19 14.58L76.19 14.58Q75.23 14.58 74.69 15.33Q74.15 16.09 74.14 17.46L74.14 17.46ZM83.76 19.42L83.76 19.42L85.24 19.42Q85.24 20.15 85.72 20.55Q86.21 20.95 87.10 20.95L87.10 20.95Q87.88 20.95 88.27 20.63Q88.65 20.32 88.65 19.80L88.65 19.80Q88.65 19.24 88.26 18.94Q87.86 18.63 86.83 18.32Q85.80 18.01 85.19 17.63L85.19 17.63Q84.03 16.90 84.03 15.72L84.03 15.72Q84.03 14.69 84.87 14.02Q85.71 13.35 87.05 13.35L87.05 13.35Q87.94 13.35 88.64 13.68Q89.33 14.01 89.73 14.61Q90.13 15.22 90.13 15.96L90.13 15.96L88.65 15.96Q88.65 15.29 88.24 14.91Q87.82 14.54 87.04 14.54L87.04 14.54Q86.31 14.54 85.91 14.85Q85.51 15.16 85.51 15.71L85.51 15.71Q85.51 16.18 85.94 16.50Q86.38 16.81 87.37 17.10Q88.37 17.40 88.97 17.78Q89.57 18.16 89.86 18.65Q90.14 19.13 90.14 19.79L90.14 19.79Q90.14 20.86 89.32 21.49Q88.50 22.12 87.10 22.12L87.10 22.12Q86.18 22.12 85.40 21.77Q84.62 21.43 84.19 20.83Q83.76 20.22 83.76 19.42ZM100.00 22L94.43 22L94.43 13.47L99.96 13.47L99.96 14.66L95.91 14.66L95.91 17.02L99.41 17.02L99.41 18.19L95.91 18.19L95.91 20.82L100.00 20.82L100.00 22Z" fill="#E82A28"/><path class="svg__text" d="" fill="#FFFFFF" x="124.78"/></svg>